HIERARCHY
ROOT Hips
{
	OFFSET 0.000000 0.000000 0.000000 
	CHANNELS 6 Xposition Yposition Zposition Yrotation Zrotation Xrotation 
	JOINT Lumbar
	{
		OFFSET 0.000000 0.000000 0.000000 
		CHANNELS 3 Zrotation Xrotation Yrotation
		JOINT Neck
		{
			OFFSET 0.000000 0.445665 0.000000 
			CHANNELS 3 Zrotation Xrotation Yrotation
			End Site
			{
				OFFSET 0.000000 0.227535 0.000000 
			}
		}
		JOINT RightShoulder
		{
			OFFSET 0.019635 0.377685 0.194865 
			CHANNELS 3 Zrotation Xrotation Yrotation
			JOINT RightElbow
			{
				OFFSET 0.000000 -0.243375 0.000000 
				CHANNELS 2 Zrotation Yrotation
				JOINT RightWrist
				{
					OFFSET 0.000000 -0.264825 0.000000 
					CHANNELS 2 Zrotation Xrotation
					End Site
					{
						OFFSET 0.006600 -0.176220 0.000990 
					}
				}
			}
		}
		JOINT LeftShoulder
		{
			OFFSET 0.019635 0.377685 -0.194865 
			CHANNELS 3 Zrotation Xrotation Yrotation
			JOINT LeftElbow
			{
				OFFSET 0.000000 -0.243375 0.000000 
				CHANNELS 2 Zrotation Yrotation
				JOINT LeftWrist
				{
					OFFSET 0.000000 -0.264825 0.000000 
					CHANNELS 2 Zrotation Xrotation
					End Site
					{
						OFFSET 0.006600 -0.176220 -0.000990 
					}
				}
			}
		}
	}
	JOINT RightHip
	{
		OFFSET 0.052140 -0.069960 0.075570 
		CHANNELS 3 Zrotation Xrotation Yrotation
		JOINT RightKnee
		{
			OFFSET 0.000000 -0.402270 0.000000 
			CHANNELS 1 Zrotation
			JOINT RightAnkle
			{
				OFFSET 0.000000 -0.404085 0.000000 
				CHANNELS 3 Zrotation Xrotation Yrotation
				End Site
				{
					OFFSET 0.204105 -0.089430 0.008415 
				}
			}
		}
	}
	JOINT LeftHip
	{
		OFFSET 0.052140 -0.069960 -0.075570 
		CHANNELS 3 Zrotation Xrotation Yrotation
		JOINT LeftKnee
		{
			OFFSET 0.000000 -0.402270 0.000000 
			CHANNELS 1 Zrotation
			JOINT LeftAnkle
			{
				OFFSET 0.000000 -0.404085 0.000000 
				CHANNELS 3 Zrotation Xrotation Yrotation
				End Site
				{
					OFFSET 0.204105 -0.089430 -0.008415 
				}
			}
		}
	}
}
MOTION
Frames: 28
Frame Time: 0.02
3.40908 0.97031 0.99489 752.11365 0 -0.81924 6.04647 1.37065 5.31758 -19.27177 8.6544 11.26136 74.02751 -28.10829 55.02396 127.25169 78.28023 33.07918 -0.67069 5.28689 49.26756 65.2542 61.70454 -58.88191 -28.25148 -0.34531 29.45925 0.11529 7.37822 -56.80728 7.44207 -5.34029 -7.62461 0.06167 -12.88281 5.20256 -14.96626 6.74733 0.05168 -3.8362
3.41969 0.9703 0.98923 754.16436 0 -1.03069 5.77298 1.09258 4.07761 -18.67403 10.49091 11.96947 74.07559 -28.72995 54.73117 127.129 79.35062 33.92943 -0.74349 4.21825 48.33925 65.14558 61.90202 -60.1472 -28.22885 -0.14748 29.12392 0.63928 9.28536 -51.74798 7.96505 -5.20429 -7.03508 -0.72686 -12.76401 1.82725 -15.12864 7.14593 0.43227 -2.65635
3.43048 0.96974 0.98286 756.07602 0 -1.09506 5.48457 0.77325 3.40167 -18.06337 11.62611 12.5757 72.84029 -29.18642 54.3531 126.89705 77.4185 34.24305 -1.76446 4.43112 48.12375 63.73418 61.97134 -61.23268 -28.29424 0.01923 28.48871 0.91316 11.40382 -46.21744 8.56004 -5.01878 -6.39634 -1.53937 -12.65698 -0.72212 -15.37515 7.6003 0.91492 -1.67662
3.44121 0.96937 0.97672 758.03819 0 -1.22175 5.2112 0.47909 2.47911 -17.46239 13.0917 13.229 72.1657 -29.73685 54.02378 126.72703 76.90789 34.80586 -2.31509 4.04067 47.51928 62.94022 62.10472 -62.42787 -28.31573 0.20423 27.99222 1.28858 13.37815 -40.97742 9.12684 -4.84463 -5.76805 -2.345 -12.54583 -3.6287 -15.58174 8.03408 1.33776 -0.63014
3.45183 0.96926 0.971 760.06308 0 -1.3672 4.90207 0.15339 1.49948 -16.84532 14.54329 13.88615 71.6311 -30.22032 53.65102 126.50907 76.25291 35.37097 -3.00323 3.70136 47.15942 62.07421 62.21617 -63.53185 -28.35946 0.37669 27.47071 1.71169 15.55244 -35.36898 9.68112 -4.7076 -5.16045 -3.13309 -12.42983 -6.65197 -15.79747 8.44847 1.81931 0.53528
3.46275 0.96847 0.96421 761.91908 0 -1.43978 4.66576 -0.11429 0.77833 -16.2612 15.84067 14.50722 70.48601 -30.79586 53.35008 126.36196 75.14915 35.79 -3.64327 3.57038 46.47295 61.04164 62.34326 -64.76911 -28.37209 0.5654 26.93606 1.98158 17.36249 -30.44765 10.26987 -4.48505 -4.50838 -3.96331 -12.32509 -9.21681 -16.01503 8.91503 2.20053 1.39808
3.47431 0.96588 0.95472 763.36508 0 -1.33546 4.61546 -0.21627 0.63927 -15.74022 16.92289 15.06661 67.93491 -31.70599 53.25346 126.45712 73.53527 35.99292 -3.89267 3.75063 44.68753 59.78961 62.52537 -66.46186 -28.32218 0.81347 26.43304 1.83706 18.10139 -27.36427 11.01372 -4.04283 -3.76127 -4.90636 -12.26621 -10.76442 -16.19939 9.52547 2.29852 1.48444
3.48618 0.96263 0.94414 764.64186 0 -1.16548 4.64242 -0.25666 0.74156 -15.25817 17.86193 15.58926 64.81677 -32.70556 53.23407 126.62382 71.56249 36.05591 -4.06852 4.09439 42.55931 58.42322 62.72919 -68.28265 -28.23087 1.07694 25.92905 1.55595 18.46756 -25.02322 11.77644 -3.51785 -2.97435 -5.88955 -12.21452 -11.86559 -16.38729 10.18301 2.28873 1.2688
3.498 0.9597 0.93399 765.97895 0 -1.0324 4.64607 -0.3221 0.73221 -14.77826 18.83687 16.12023 61.96927 -33.63695 53.19003 126.74375 69.74139 36.14119 -4.30013 4.33499 40.60381 57.15485 62.93716 -70.01425 -28.12685 1.32843 25.43267 1.37247 19.01578 -22.46419 12.47838 -3.02808 -2.19747 -6.85436 -12.14898 -13.13527 -16.58222 10.81165 2.31555 1.18266
3.50944 0.95666 0.92414 767.37666 0 -0.86218 4.59908 -0.40292 0.75255 -14.2144 19.91267 16.68593 59.00863 -34.67972 53.10203 126.91802 67.85774 36.37509 -4.47433 4.73563 38.5915 55.64856 63.08769 -71.87472 -28.15261 1.6005 24.90015 1.03287 19.52487 -19.39384 13.3988 -2.5425 -1.44494 -7.82518 -12.13113 -14.52115 -16.736 11.4783 2.39705 1.12321
3.52174 0.95372 0.91338 768.61564 0 -0.75843 4.67649 -0.4347 0.7585 -13.8346 20.75138 17.16834 56.18382 -35.51292 53.12112 127.00012 66.06769 36.2824 -4.73302 4.83238 36.61907 54.62601 63.35697 -73.49464 -27.90509 1.83306 24.44053 0.98588 20.01545 -17.55892 13.87323 -2.03429 -0.64225 -8.78691 -12.0122 -15.57058 -16.98486 12.07067 2.33914 0.93813
3.5364 0.95107 0.90053 769.40815 0 -0.83125 5.07438 -0.36144 0.68622 -13.95428 20.98968 17.45968 53.72018 -35.75488 53.45189 126.78796 64.549 35.24244 -5.28661 3.98499 34.73591 54.9825 64.01572 -74.45926 -26.84402 1.95852 24.23554 1.81112 20.61808 -19.0605 13.06339 -1.44066 0.36788 -9.76041 -11.63963 -15.79179 -17.41561 12.49195 1.91038 0.48744
3.55191 0.94858 0.88679 770.05748 0 -0.97843 5.59502 -0.238 0.5847 -14.25694 20.99432 17.66301 51.44741 -35.78266 53.88218 126.48508 63.16467 33.89509 -5.91565 2.83251 32.92169 55.83171 64.78163 -75.17045 -25.52195 2.04276 24.09479 2.93133 21.19925 -21.7609 11.8126 -0.83511 1.41278 -10.71263 -11.15923 -15.69395 -17.95845 12.8268 1.34727 -0.07977
3.567 0.94612 0.87338 770.80459 0 -1.10719 6.06302 -0.12709 0.48004 -14.47649 21.09656 17.88798 49.194 -35.90225 54.24386 126.23913 61.78415 32.74474 -6.47593 1.85533 31.13995 56.45383 65.45496 -75.97241 -24.36401 2.1422 23.89238 3.89719 21.74344 -23.84676 10.79503 -0.26406 2.38891 -11.64629 -10.71118 -15.7536 -18.49925 13.17271 0.85262 -0.59747
3.58223 0.94318 0.86023 771.40444 0 -1.16794 6.52295 -0.05688 0.45271 -14.70069 21.22894 18.19062 46.47299 -36.04516 54.7049 125.93012 60.11961 31.35161 -7.17681 0.72772 29.07357 57.09119 66.31322 -76.88277 -23.01184 2.25704 23.83005 4.94269 22.47686 -26.25841 9.63996 0.43125 3.58718 -12.70841 -10.33664 -15.75045 -18.82537 13.64466 0.32113 -1.11102
3.59737 0.94129 0.84635 772.28318 0 -1.38978 7.02466 0.10851 0.25516 -14.95378 21.24587 18.30917 44.77763 -36.09129 54.98413 125.72896 59.07826 30.38756 -7.6073 -0.15853 27.62547 57.8071 66.81272 -77.50426 -22.00358 2.32985 23.4872 5.89561 22.80989 -28.25927 8.66581 0.87133 4.33413 -13.48753 -9.77958 -15.8007 -19.63576 13.82639 -0.16181 -1.65725
3.61218 0.94228 0.83056 773.93372 0 -2.03049 7.63809 0.53049 -0.41362 -15.27963 20.99336 17.95691 45.87666 -35.88863 54.71543 125.85698 59.76814 30.72674 -7.24313 -0.32776 27.82935 58.69109 66.28597 -77.39867 -22.00188 2.29605 22.39057 6.50863 22.09073 -28.89493 8.30443 0.58838 3.79863 -13.57305 -8.77817 -16.14547 -21.66542 13.28492 -0.49712 -2.25746
3.62685 0.9443 0.81408 775.87638 0 -2.8321 8.28366 1.04518 -1.25071 -15.62128 20.63372 17.41933 47.99792 -35.60124 54.26422 126.09492 61.06833 31.49709 -6.61244 -0.23844 28.66187 59.62256 65.39717 -77.00797 -22.35641 2.22124 21.00379 7.02082 20.95949 -29.06241 8.13996 0.05146 2.81558 -13.3582 -7.59183 -16.54523 -24.1951 12.44476 -0.77476 -2.88424
3.64153 0.94582 0.79799 777.7088 0 -3.56604 8.89725 1.51303 -2.00874 -15.93041 20.33063 16.95666 49.65432 -35.37524 53.90996 126.27572 62.0708 32.0475 -6.12034 -0.25471 29.23352 60.48842 64.67886 -76.7427 -22.55309 2.16577 19.72447 7.58842 19.99065 -29.39707 7.88086 -0.36065 2.05174 -13.22721 -6.46667 -16.87593 -26.5557 11.702 -1.06567 -3.50518
3.65648 0.9475 0.78156 779.44348 0 -4.28134 9.58993 2.00218 -2.78553 -16.35178 19.99125 16.53138 51.33762 -35.04774 53.49903 126.48237 63.18933 32.70459 -5.54714 -0.33834 29.70275 61.56512 63.93488 -76.48988 -22.72514 2.10663 18.54567 8.12765 19.13707 -29.95846 7.62518 -0.81545 1.21057 -13.32032 -5.42898 -17.37807 -28.6762 11.1127 -1.41615 -4.11309
3.6708 0.94907 0.76569 781.44997 0 -5.07041 10.12213 2.46878 -3.55402 -16.54219 19.69861 15.98389 53.18095 -34.91112 53.16283 126.66416 64.17715 33.22557 -5.09106 -0.20811 30.5335 62.19769 63.16235 -76.14202 -23.03453 2.04502 17.0937 8.69581 17.93179 -29.93081 7.41853 -1.23741 0.43849 -12.8724 -4.1732 -17.5444 -31.41215 10.14079 -1.62683 -4.74155
3.68363 0.95028 0.75145 784.16153 0 -6.04161 10.21741 2.84543 -4.33341 -16.07677 19.61533 15.15803 55.42401 -35.34751 53.06396 126.73451 64.93187 33.45383 -4.91359 0.38203 32.21265 61.67084 62.35319 -75.64264 -23.65379 1.99473 14.90788 9.3873 15.98618 -28.29777 7.27032 -1.54632 -0.16796 -11.0318 -2.30654 -16.73643 -35.73564 8.1302 -1.46699 -5.51736
3.69579 0.95132 0.73781 787.13168 0 -7.07655 10.14671 3.19621 -5.08393 -15.37971 19.57208 14.21413 57.7529 -35.97306 53.04753 126.77832 65.48265 33.50555 -4.88113 1.19348 34.2335 60.67606 61.53594 -75.05116 -24.39662 1.94208 12.46699 10.106 13.68325 -26.09993 7.1723 -1.8074 -0.67001 -8.65267 -0.23896 -15.59566 -40.65423 5.75797 -1.16755 -6.29496
3.70813 0.95231 0.72393 789.96814 0 -8.07188 10.14232 3.56272 -5.79912 -14.79758 19.47851 13.31484 59.90548 -36.49934 53.00323 126.8466 65.94304 33.50454 -4.85688 1.94813 36.0942 59.84427 60.75222 -74.476 -25.07297 1.88543 10.17481 10.799 11.45053 -24.2151 7.07232 -2.06263 -1.12472 -6.5011 1.70275 -14.63202 -45.29866 3.58499 -0.93038 -7.00644
3.72098 0.95384 0.70987 792.88615 0 -9.12299 10.17817 3.91846 -6.72714 -14.17692 19.52405 12.44436 62.67439 -37.08776 52.91668 126.87094 67.19334 34.04284 -4.51965 2.523 37.9948 59.23308 59.82978 -73.99807 -25.80659 1.84875 7.73123 11.54665 9.5658 -22.07474 6.89065 -2.43763 -1.97249 -4.40881 3.80335 -13.56438 -49.99475 1.24457 -0.69608 -7.9914
3.7326 0.95423 0.69636 795.68792 0 -10.06446 10.08967 4.28587 -7.1998 -13.57928 19.28153 11.49176 64.16553 -37.58145 52.93435 126.97322 66.74748 33.4566 -4.86073 3.52628 39.8885 58.03942 59.19924 -73.30005 -26.4439 1.77046 5.54981 12.18608 6.91036 -20.34112 6.88886 -2.55549 -1.99944 -2.07255 5.61019 -12.62918 -54.69488 -0.81702 -0.42358 -8.41086
3.74117 0.95135 0.6842 798.13768 0 -10.74179 9.70374 4.72027 -6.44736 -13.11944 18.31607 10.31297 62.11573 -37.86767 53.26996 127.3486 61.62354 29.4009 -7.13928 5.61795 41.64702 55.44928 59.3753 -72.01438 -26.79942 1.57804 4.12461 12.53793 1.92745 -19.84519 7.36724 -1.91505 0.46239 0.83244 6.62469 -12.17949 -59.45069 -2.12345 -0.0777 -7.23251
3.74848 0.94736 0.67259 800.45344 0 -11.29539 9.19725 5.16133 -5.23268 -12.68804 17.04633 9.06228 58.77429 -38.03552 53.69955 127.79432 54.81032 24.2876 -10.0779 8.13939 43.38839 52.27301 59.84634 -70.5129 -27.04982 1.34414 2.9787 12.77679 -3.7633 -19.7838 8.02373 -1.02835 3.70336 3.95638 7.32307 -11.86712 -64.14818 -3.11735 0.3013 -5.49129
